<svg width="60" height="40" viewBox="0 0 60 40" fill="none" xmlns="http://www.w3.org/2000/svg">
<g clip-path="url(#clip0)">
<path d="M23.043 35.2385C37.194 35.2385 44.934 23.5145 44.934 13.3475C44.934 13.0145 44.934 12.683 44.9115 12.353C46.4172 11.2639 47.717 9.91534 48.75 8.37052C47.3458 8.99273 45.8562 9.40076 44.331 9.58102C45.9371 8.61949 47.1392 7.10718 47.7135 5.32552C46.2032 6.22171 44.551 6.85329 42.828 7.19302C41.668 5.95955 40.1338 5.14277 38.4628 4.86909C36.7918 4.59541 35.0772 4.88008 33.5843 5.67904C32.0914 6.47801 30.9035 7.74673 30.2043 9.28888C29.5051 10.831 29.3337 12.5606 29.7165 14.21C26.6576 14.0567 23.6652 13.2618 20.9335 11.8769C18.2017 10.492 15.7918 8.54819 13.86 6.17152C12.8761 7.86527 12.5748 9.87032 13.0173 11.7784C13.4599 13.6865 14.613 15.3543 16.242 16.442C15.0176 16.4057 13.8199 16.0754 12.75 15.479C12.75 15.5105 12.75 15.5435 12.75 15.5765C12.7505 17.3528 13.3654 19.0743 14.4904 20.449C15.6155 21.8236 17.1813 22.7668 18.9225 23.1185C17.7898 23.4274 16.6014 23.4726 15.4485 23.2505C15.9401 24.7793 16.8973 26.1161 18.1861 27.0741C19.4749 28.0321 21.0309 28.5634 22.6365 28.5935C19.9121 30.7347 16.5466 31.897 13.0815 31.8935C12.4694 31.8923 11.8578 31.8553 11.25 31.7825C14.7685 34.0404 18.8624 35.2381 23.043 35.2325" fill="#24282A"/>
</g>
<defs>
<clipPath id="clip0">
<rect width="60" height="40" fill="white"/>
</clipPath>
</defs>
</svg>
