<svg width="60" height="40" viewBox="0 0 60 40" fill="none" xmlns="http://www.w3.org/2000/svg">
<g clip-path="url(#clip0)">
<path d="M43.6018 23.3759L36.4561 21.5909C34.9686 16.6935 30.4183 13.1277 25.0335 13.1277C21.7355 13.1277 18.7506 14.465 16.5902 16.6269C15.2401 17.9755 13.3772 18.8086 11.3188 18.8086C11.2253 18.8086 11.1318 18.8057 11.0383 18.8029C11.0142 19.1995 11 19.5976 11 19.9999C11 25.1694 13.0556 29.8585 16.3918 33.2968C18.5664 35.5776 21.6336 36.9999 25.0335 36.9999C28.3301 36.9999 31.3151 35.6641 33.4741 33.5036L43.6018 23.3759Z" fill="#24282A"/>
<path d="M43.8018 6.70034C41.6286 4.42092 38.5615 3 35.1615 3C31.8649 3 28.8814 4.33592 26.721 6.49633L16.7122 16.5051C16.6981 16.5192 16.6839 16.532 16.6697 16.5462C16.6357 16.5816 16.6003 16.6156 16.5663 16.6496C15.6299 17.5761 14.4512 18.2575 13.1323 18.5861C13.376 19.0593 13.6395 19.5211 13.92 19.9717C13.92 19.9717 13.92 19.9717 13.92 19.9731C13.9823 20.0737 14.0461 20.1729 14.1112 20.2721C14.1155 20.2791 14.1197 20.2862 14.1254 20.2947C17.5339 25.518 23.4287 28.9689 30.1295 28.9689C35.561 28.9689 40.4627 26.7009 43.9392 23.0601C45.2553 21.8969 46.9836 21.1914 48.8763 21.1914C48.9698 21.1914 49.0633 21.1943 49.1567 21.1971C49.1809 20.8018 49.195 20.4023 49.195 20C49.195 14.8291 47.1394 10.14 43.8018 6.70034Z" fill="#24282A"/>
</g>
<defs>
<clipPath id="clip0">
<rect width="60" height="40" fill="white"/>
</clipPath>
</defs>
</svg>
