<svg width="250" height="36" viewBox="0 0 250 36" fill="none" xmlns="http://www.w3.org/2000/svg">
<g clip-path="url(#clip0)">
<path d="M27.9668 23.624H23.6468C23.6894 24.7333 23.9348 25.6613 24.3828 26.408C24.8521 27.1333 25.4388 27.72 26.1428 28.168C26.8681 28.616 27.6894 28.936 28.6068 29.128C29.5241 29.32 30.4628 29.416 31.4228 29.416C32.3614 29.416 33.2788 29.32 34.1748 29.128C35.0921 28.9573 35.9028 28.648 36.6068 28.2C37.3108 27.752 37.8761 27.1653 38.3028 26.44C38.7508 25.6933 38.9748 24.776 38.9748 23.688C38.9748 22.92 38.8254 22.28 38.5268 21.768C38.2281 21.2347 37.8334 20.7973 37.3428 20.456C36.8521 20.0933 36.2868 19.8053 35.6468 19.592C35.0281 19.3787 34.3881 19.1973 33.7268 19.048C33.0868 18.8987 32.4574 18.76 31.8388 18.632C31.2201 18.504 30.6654 18.3653 30.1748 18.216C29.7054 18.0453 29.3214 17.832 29.0228 17.576C28.7241 17.32 28.5748 16.9893 28.5748 16.584C28.5748 16.2427 28.6601 15.976 28.8308 15.784C29.0014 15.5707 29.2041 15.4107 29.4388 15.304C29.6948 15.1973 29.9721 15.1333 30.2708 15.112C30.5694 15.0693 30.8468 15.048 31.1028 15.048C31.9134 15.048 32.6174 15.208 33.2148 15.528C33.8121 15.8267 34.1428 16.4133 34.2068 17.288H38.5268C38.4414 16.264 38.1748 15.4213 37.7268 14.76C37.3001 14.0773 36.7561 13.5333 36.0948 13.128C35.4334 12.7227 34.6761 12.4347 33.8228 12.264C32.9908 12.0933 32.1268 12.008 31.2308 12.008C30.3348 12.008 29.4601 12.0933 28.6068 12.264C27.7534 12.4133 26.9854 12.6907 26.3028 13.096C25.6201 13.48 25.0654 14.0133 24.6388 14.696C24.2334 15.3787 24.0308 16.2533 24.0308 17.32C24.0308 18.0453 24.1801 18.664 24.4788 19.176C24.7774 19.6667 25.1721 20.0827 25.6628 20.424C26.1534 20.744 26.7081 21.0107 27.3268 21.224C27.9668 21.416 28.6174 21.5867 29.2788 21.736C30.9001 22.0773 32.1588 22.4187 33.0548 22.76C33.9721 23.1013 34.4308 23.6133 34.4308 24.296C34.4308 24.7013 34.3348 25.0427 34.1428 25.32C33.9508 25.576 33.7054 25.7893 33.4068 25.96C33.1294 26.1093 32.8094 26.2267 32.4468 26.312C32.1054 26.376 31.7748 26.408 31.4548 26.408C31.0068 26.408 30.5694 26.3547 30.1428 26.248C29.7374 26.1413 29.3748 25.9813 29.0548 25.768C28.7348 25.5333 28.4681 25.2453 28.2548 24.904C28.0628 24.5413 27.9668 24.1147 27.9668 23.624ZM49.9863 26.024C49.2609 26.024 48.6423 25.8747 48.1302 25.576C47.6183 25.2773 47.2023 24.8933 46.8823 24.424C46.5836 23.9333 46.3596 23.368 46.2103 22.728C46.0823 22.088 46.0183 21.4373 46.0183 20.776C46.0183 20.0933 46.0823 19.432 46.2103 18.792C46.3383 18.152 46.5516 17.5867 46.8503 17.096C47.1703 16.6053 47.5756 16.2107 48.0663 15.912C48.5783 15.592 49.2076 15.432 49.9543 15.432C50.6796 15.432 51.2876 15.592 51.7783 15.912C52.2903 16.2107 52.7063 16.616 53.0263 17.128C53.3463 17.6187 53.5703 18.184 53.6983 18.824C53.8476 19.464 53.9223 20.1147 53.9223 20.776C53.9223 21.4373 53.8583 22.088 53.7303 22.728C53.6023 23.368 53.3783 23.9333 53.0583 24.424C52.7596 24.8933 52.3543 25.2773 51.8423 25.576C51.3516 25.8747 50.7329 26.024 49.9863 26.024ZM41.6343 12.456V34.792H46.1783V26.952H46.2423C46.7969 27.7627 47.5009 28.3813 48.3542 28.808C49.2289 29.2133 50.1783 29.416 51.2023 29.416C52.4183 29.416 53.4743 29.1813 54.3703 28.712C55.2876 28.2427 56.0449 27.6133 56.6423 26.824C57.2609 26.0347 57.7196 25.128 58.0183 24.104C58.3169 23.08 58.4663 22.0133 58.4663 20.904C58.4663 19.7307 58.3169 18.6107 58.0183 17.544C57.7196 16.456 57.2609 15.5067 56.6423 14.696C56.0236 13.8853 55.2449 13.2347 54.3063 12.744C53.3676 12.2533 52.2476 12.008 50.9463 12.008C49.9223 12.008 48.9836 12.2107 48.1302 12.616C47.2769 13.0213 46.5729 13.672 46.0183 14.568H45.9543V12.456H41.6343ZM72.3328 18.952H64.9408C64.9621 18.632 65.0261 18.2693 65.1328 17.864C65.2608 17.4587 65.4634 17.0747 65.7408 16.712C66.0394 16.3493 66.4234 16.0507 66.8928 15.816C67.3834 15.56 67.9914 15.432 68.7168 15.432C69.8261 15.432 70.6474 15.7307 71.1808 16.328C71.7354 16.9253 72.1194 17.8 72.3328 18.952ZM64.9408 21.832H76.8768C76.9621 20.552 76.8554 19.3253 76.5568 18.152C76.2581 16.9787 75.7674 15.9333 75.0848 15.016C74.4234 14.0987 73.5701 13.3733 72.5248 12.84C71.4794 12.2853 70.2528 12.008 68.8448 12.008C67.5861 12.008 66.4341 12.232 65.3888 12.68C64.3648 13.128 63.4794 13.7467 62.7328 14.536C61.9861 15.304 61.4101 16.2213 61.0048 17.288C60.5994 18.3547 60.3968 19.5067 60.3968 20.744C60.3968 22.024 60.5888 23.1973 60.9728 24.264C61.3781 25.3307 61.9434 26.248 62.6688 27.016C63.3941 27.784 64.2794 28.3813 65.3248 28.808C66.3701 29.2133 67.5434 29.416 68.8448 29.416C70.7221 29.416 72.3221 28.9893 73.6448 28.136C74.9674 27.2827 75.9488 25.864 76.5888 23.88H72.5888C72.4394 24.392 72.0341 24.8827 71.3728 25.352C70.7114 25.8 69.9221 26.024 69.0048 26.024C67.7248 26.024 66.7434 25.6933 66.0608 25.032C65.3781 24.3707 65.0048 23.304 64.9408 21.832ZM79.3798 17.544C79.4438 16.4773 79.7104 15.592 80.1798 14.888C80.6491 14.184 81.2464 13.6187 81.9718 13.192C82.6971 12.7653 83.5078 12.4667 84.4038 12.296C85.3211 12.104 86.2384 12.008 87.1558 12.008C87.9878 12.008 88.8304 12.072 89.6838 12.2C90.5371 12.3067 91.3158 12.5307 92.0198 12.872C92.7238 13.2133 93.2998 13.6933 93.7478 14.312C94.1958 14.9093 94.4198 15.7093 94.4198 16.712V25.32C94.4198 26.0667 94.4624 26.7813 94.5478 27.464C94.6331 28.1467 94.7824 28.6587 94.9958 29H90.3878C90.3024 28.744 90.2278 28.488 90.1638 28.232C90.1211 27.9547 90.0891 27.6773 90.0678 27.4C89.3424 28.1467 88.4891 28.6693 87.5078 28.968C86.5264 29.2667 85.5238 29.416 84.4998 29.416C83.7104 29.416 82.9744 29.32 82.2918 29.128C81.6091 28.936 81.0118 28.6373 80.4998 28.232C79.9878 27.8267 79.5824 27.3147 79.2838 26.696C79.0064 26.0773 78.8678 25.3413 78.8678 24.488C78.8678 23.5493 79.0278 22.7813 79.3478 22.184C79.6891 21.5653 80.1158 21.0747 80.6278 20.712C81.1611 20.3493 81.7584 20.0827 82.4198 19.912C83.1024 19.72 83.7851 19.5707 84.4678 19.464C85.1504 19.3573 85.8224 19.272 86.4838 19.208C87.1451 19.144 87.7318 19.048 88.2438 18.92C88.7558 18.792 89.1611 18.6107 89.4598 18.376C89.7584 18.12 89.8971 17.7573 89.8758 17.288C89.8758 16.7973 89.7904 16.4133 89.6198 16.136C89.4704 15.8373 89.2571 15.6133 88.9798 15.464C88.7238 15.2933 88.4144 15.1867 88.0518 15.144C87.7104 15.08 87.3371 15.048 86.9318 15.048C86.0358 15.048 85.3318 15.24 84.8198 15.624C84.3078 16.008 84.0091 16.648 83.9238 17.544H79.3798ZM89.8758 20.904C89.6838 21.0747 89.4384 21.2133 89.1398 21.32C88.8624 21.4053 88.5531 21.48 88.2118 21.544C87.8918 21.608 87.5504 21.6613 87.1878 21.704C86.8251 21.7467 86.4624 21.8 86.0998 21.864C85.7584 21.928 85.4171 22.0133 85.0758 22.12C84.7558 22.2267 84.4678 22.376 84.2118 22.568C83.9771 22.7387 83.7851 22.9627 83.6358 23.24C83.4864 23.5173 83.4118 23.8693 83.4118 24.296C83.4118 24.7013 83.4864 25.0427 83.6358 25.32C83.7851 25.5973 83.9878 25.8213 84.2438 25.992C84.4998 26.1413 84.7984 26.248 85.1398 26.312C85.4811 26.376 85.8331 26.408 86.1958 26.408C87.0918 26.408 87.7851 26.2587 88.2758 25.96C88.7664 25.6613 89.1291 25.3093 89.3638 24.904C89.5984 24.4773 89.7371 24.0507 89.7798 23.624C89.8438 23.1973 89.8758 22.856 89.8758 22.6V20.904ZM98.3628 6.152V29H102.907V23.304L104.667 21.608L109.211 29H114.715L107.771 18.536L114.011 12.456H108.635L102.907 18.408V6.152H98.3628ZM127.458 18.952H120.066C120.087 18.632 120.151 18.2693 120.258 17.864C120.386 17.4587 120.588 17.0747 120.866 16.712C121.164 16.3493 121.548 16.0507 122.018 15.816C122.508 15.56 123.116 15.432 123.842 15.432C124.951 15.432 125.772 15.7307 126.306 16.328C126.86 16.9253 127.244 17.8 127.458 18.952ZM120.066 21.832H132.002C132.087 20.552 131.98 19.3253 131.682 18.152C131.383 16.9787 130.892 15.9333 130.21 15.016C129.548 14.0987 128.695 13.3733 127.65 12.84C126.604 12.2853 125.378 12.008 123.97 12.008C122.711 12.008 121.559 12.232 120.514 12.68C119.49 13.128 118.604 13.7467 117.858 14.536C117.111 15.304 116.535 16.2213 116.13 17.288C115.724 18.3547 115.522 19.5067 115.522 20.744C115.522 22.024 115.714 23.1973 116.098 24.264C116.503 25.3307 117.068 26.248 117.794 27.016C118.519 27.784 119.404 28.3813 120.45 28.808C121.495 29.2133 122.668 29.416 123.97 29.416C125.847 29.416 127.447 28.9893 128.77 28.136C130.092 27.2827 131.074 25.864 131.714 23.88H127.714C127.564 24.392 127.159 24.8827 126.498 25.352C125.836 25.8 125.047 26.024 124.13 26.024C122.85 26.024 121.868 25.6933 121.186 25.032C120.503 24.3707 120.13 23.304 120.066 21.832ZM134.697 12.456V29H139.241V21.544C139.241 20.7973 139.315 20.104 139.465 19.464C139.614 18.824 139.859 18.2693 140.201 17.8C140.563 17.3093 141.033 16.9253 141.609 16.648C142.185 16.3707 142.889 16.232 143.721 16.232C143.998 16.232 144.286 16.2533 144.585 16.296C144.883 16.3173 145.139 16.3493 145.353 16.392V12.168C144.99 12.0613 144.659 12.008 144.361 12.008C143.785 12.008 143.23 12.0933 142.697 12.264C142.163 12.4347 141.662 12.68 141.193 13C140.723 13.2987 140.307 13.672 139.945 14.12C139.582 14.5467 139.294 15.016 139.081 15.528H139.017V12.456H134.697ZM167.785 20.68C167.785 21.3627 167.721 22.024 167.593 22.664C167.465 23.304 167.251 23.88 166.953 24.392C166.654 24.8827 166.249 25.2773 165.737 25.576C165.246 25.8747 164.627 26.024 163.881 26.024C163.177 26.024 162.569 25.8747 162.057 25.576C161.566 25.256 161.15 24.8507 160.809 24.36C160.489 23.848 160.254 23.272 160.105 22.632C159.955 21.992 159.881 21.352 159.881 20.712C159.881 20.0293 159.945 19.3787 160.073 18.76C160.222 18.12 160.446 17.5547 160.745 17.064C161.065 16.5733 161.481 16.1787 161.993 15.88C162.505 15.5813 163.134 15.432 163.881 15.432C164.627 15.432 165.246 15.5813 165.737 15.88C166.227 16.1787 166.622 16.5733 166.921 17.064C167.241 17.5333 167.465 18.088 167.593 18.728C167.721 19.3467 167.785 19.9973 167.785 20.68ZM167.849 26.888V29H172.169V6.152H167.625V14.472H167.561C167.049 13.6613 166.345 13.0533 165.449 12.648C164.574 12.2213 163.646 12.008 162.665 12.008C161.449 12.008 160.382 12.2533 159.465 12.744C158.547 13.2133 157.779 13.8427 157.161 14.632C156.563 15.4213 156.105 16.3387 155.785 17.384C155.486 18.408 155.337 19.4747 155.337 20.584C155.337 21.736 155.486 22.8453 155.785 23.912C156.105 24.9787 156.563 25.928 157.161 26.76C157.779 27.5707 158.558 28.2213 159.497 28.712C160.435 29.1813 161.523 29.416 162.76 29.416C163.849 29.416 164.819 29.224 165.673 28.84C166.547 28.4347 167.251 27.784 167.785 26.888H167.849ZM186.739 18.952H179.347C179.368 18.632 179.432 18.2693 179.539 17.864C179.667 17.4587 179.87 17.0747 180.147 16.712C180.446 16.3493 180.83 16.0507 181.299 15.816C181.79 15.56 182.398 15.432 183.123 15.432C184.232 15.432 185.054 15.7307 185.587 16.328C186.142 16.9253 186.526 17.8 186.739 18.952ZM179.347 21.832H191.283C191.368 20.552 191.262 19.3253 190.963 18.152C190.664 16.9787 190.174 15.9333 189.491 15.016C188.83 14.0987 187.976 13.3733 186.931 12.84C185.886 12.2853 184.659 12.008 183.251 12.008C181.992 12.008 180.84 12.232 179.795 12.68C178.771 13.128 177.886 13.7467 177.139 14.536C176.392 15.304 175.816 16.2213 175.411 17.288C175.006 18.3547 174.803 19.5067 174.803 20.744C174.803 22.024 174.995 23.1973 175.379 24.264C175.784 25.3307 176.35 26.248 177.075 27.016C177.8 27.784 178.686 28.3813 179.731 28.808C180.776 29.2133 181.95 29.416 183.251 29.416C185.128 29.416 186.728 28.9893 188.051 28.136C189.374 27.2827 190.355 25.864 190.995 23.88H186.995C186.846 24.392 186.44 24.8827 185.779 25.352C185.118 25.8 184.328 26.024 183.411 26.024C182.131 26.024 181.15 25.6933 180.467 25.032C179.784 24.3707 179.411 23.304 179.347 21.832ZM205.242 18.28H209.69C209.626 17.2133 209.37 16.296 208.922 15.528C208.474 14.7387 207.887 14.088 207.162 13.576C206.458 13.0427 205.647 12.648 204.73 12.392C203.834 12.136 202.895 12.008 201.914 12.008C200.57 12.008 199.375 12.232 198.33 12.68C197.285 13.128 196.399 13.7573 195.674 14.568C194.949 15.3573 194.394 16.3067 194.01 17.416C193.647 18.504 193.466 19.688 193.466 20.968C193.466 22.2053 193.669 23.3467 194.074 24.392C194.479 25.416 195.045 26.3013 195.77 27.048C196.495 27.7947 197.37 28.3813 198.394 28.808C199.439 29.2133 200.581 29.416 201.818 29.416C204.015 29.416 205.818 28.84 207.226 27.688C208.634 26.536 209.487 24.8613 209.786 22.664H205.402C205.253 23.688 204.879 24.5093 204.282 25.128C203.706 25.7253 202.874 26.024 201.786 26.024C201.082 26.024 200.485 25.864 199.994 25.544C199.503 25.224 199.109 24.8187 198.81 24.328C198.533 23.816 198.33 23.2507 198.202 22.632C198.074 22.0133 198.01 21.4053 198.01 20.808C198.01 20.1893 198.074 19.5707 198.202 18.952C198.33 18.312 198.543 17.736 198.842 17.224C199.162 16.6907 199.567 16.264 200.058 15.944C200.549 15.6027 201.157 15.432 201.882 15.432C203.823 15.432 204.943 16.3813 205.242 18.28ZM212.769 6.152V29H217.313V23.304L219.073 21.608L223.617 29H229.121L222.177 18.536L228.417 12.456H223.041L217.313 18.408V6.152H212.769Z" fill="#24282A"/>
</g>
<defs>
<clipPath id="clip0">
<rect width="250" height="36" fill="white"/>
</clipPath>
</defs>
</svg>
