<svg width="1840" height="605" viewBox="0 0 1840 605" fill="none" xmlns="http://www.w3.org/2000/svg">
<path d="M145.768 452.857L309.467 154.694L360.088 246.896L247.011 452.857H145.768ZM473.166 452.857H278.834L376 275.878L473.166 452.857ZM333.298 140.136L434.541 140.136L606.232 452.857H504.989L333.298 140.136ZM120.845 481.706L631.155 481.706C641.386 481.706 647.874 470.741 642.951 461.773L454.358 118.268C451.995 113.963 447.474 111.287 442.562 111.287L309.438 111.287C304.526 111.287 300.005 113.963 297.642 118.268L109.049 461.773C104.126 470.741 110.614 481.706 120.845 481.706Z" fill="white" stroke="white" stroke-width="3.42527"/>
<path d="M871.853 363.796C870.904 361.599 868.739 360.176 866.345 360.176H764.402C762.056 360.176 759.926 361.542 758.948 363.674L733.603 418.933C732.625 421.065 730.494 422.432 728.149 422.432H699.74C695.353 422.432 692.449 417.877 694.301 413.899L806.089 173.788C810.426 164.472 823.704 164.562 827.914 173.937L935.719 413.973C937.502 417.944 934.598 422.432 930.246 422.432H901.128C898.734 422.432 896.569 421.009 895.62 418.811L871.853 363.796ZM845.354 323.818C849.679 323.818 852.583 319.383 850.854 315.419L821.871 248.974C819.797 244.218 813.072 244.159 810.915 248.878L780.539 315.324C778.723 319.298 781.627 323.818 785.996 323.818H845.354Z" fill="white"/>
<path d="M995.939 169.424C999.253 169.424 1001.94 172.11 1001.94 175.424V298.607C1001.94 303.943 1008.38 306.624 1012.17 302.863L1052.81 262.476C1053.94 261.359 1055.46 260.732 1057.04 260.732H1089.87C1095.26 260.732 1097.91 267.296 1094.04 271.046L1038.41 324.828C1036.18 326.983 1035.96 330.482 1037.91 332.9L1102.01 412.673C1105.16 416.6 1102.37 422.432 1097.33 422.432H1064.29C1062.45 422.432 1060.71 421.584 1059.57 420.132L1011.73 359.066C1009.7 356.479 1005.87 356.247 1003.54 358.571V358.571C1002.52 359.599 1001.94 360.992 1001.94 362.445V416.432C1001.94 419.745 999.253 422.432 995.939 422.432H970.586C967.272 422.432 964.586 419.745 964.586 416.432V175.424C964.586 172.11 967.272 169.424 970.586 169.424H995.939Z" fill="white"/>
<path d="M1218.59 266.732C1218.59 263.419 1221.28 260.732 1224.59 260.732H1251.71C1254.14 260.732 1256.11 262.7 1256.11 265.127V265.127C1256.11 269.034 1260.94 271.107 1264.06 268.748C1275.06 260.416 1287.13 256.25 1300.27 256.25C1319.08 256.25 1333.75 262.171 1344.26 274.014C1353.34 284.085 1357.88 300.521 1357.88 323.32V416.432C1357.88 419.745 1355.19 422.432 1351.88 422.432H1326.36C1323.04 422.432 1320.36 419.745 1320.36 416.432V332.119C1320.36 316.182 1318.14 305.169 1313.72 299.082C1309.4 292.884 1301.54 289.785 1290.14 289.785C1277.75 289.785 1268.95 293.88 1263.75 302.07C1258.65 310.15 1256.11 324.261 1256.11 344.404V416.432C1256.11 419.745 1253.42 422.432 1250.11 422.432H1224.59C1221.28 422.432 1218.59 419.745 1218.59 416.432V266.732Z" fill="white"/>
<path d="M1542.36 344.494C1542.3 347.763 1539.63 350.381 1536.36 350.381H1432.84C1429.34 350.381 1426.56 353.359 1427.14 356.8C1428.9 367.113 1432.95 375.542 1439.32 382.09C1446.95 389.837 1456.75 393.711 1468.7 393.711C1478 393.711 1485.69 391.497 1491.78 387.07C1496.93 383.253 1502.7 376.638 1509.09 367.224C1510.87 364.597 1514.36 363.707 1517.13 365.254L1538.39 377.11C1541.33 378.75 1542.35 382.492 1540.54 385.326C1536.63 391.435 1532.55 396.831 1528.3 401.514C1522.88 407.38 1517.07 412.249 1510.87 416.123C1504.67 419.886 1497.98 422.653 1490.78 424.424C1483.59 426.195 1475.79 427.08 1467.37 427.08C1443.25 427.08 1423.88 419.333 1409.27 403.838C1394.66 388.232 1387.35 367.536 1387.35 341.748C1387.35 316.182 1394.44 295.485 1408.6 279.658C1422.88 264.053 1441.81 256.25 1465.38 256.25C1489.18 256.25 1507.99 263.831 1521.83 278.994C1535.55 294.046 1542.41 314.909 1542.41 341.582L1542.36 344.494ZM1496.13 319.834C1500.06 319.834 1502.95 316.095 1501.45 312.464C1495.25 297.455 1483.5 289.951 1466.21 289.951C1461.67 289.951 1457.41 290.671 1453.43 292.109C1449.44 293.437 1445.79 295.43 1442.47 298.086C1439.26 300.632 1436.5 303.73 1434.17 307.383C1433.15 308.993 1432.23 310.7 1431.42 312.504C1429.81 316.09 1432.7 319.834 1436.63 319.834H1496.13Z" fill="white"/>
<path d="M1573.05 266.732C1573.05 263.419 1575.74 260.732 1579.05 260.732H1606.18C1608.6 260.732 1610.57 262.7 1610.57 265.127V265.127C1610.57 269.034 1615.4 271.107 1618.52 268.748C1629.52 260.416 1641.59 256.25 1654.73 256.25C1673.55 256.25 1688.21 262.171 1698.73 274.014C1707.8 284.085 1712.34 300.521 1712.34 323.32V416.432C1712.34 419.745 1709.65 422.432 1706.34 422.432H1680.82C1677.51 422.432 1674.82 419.745 1674.82 416.432V332.119C1674.82 316.182 1672.61 305.169 1668.18 299.082C1663.86 292.884 1656.01 289.785 1644.61 289.785C1632.21 289.785 1623.41 293.88 1618.21 302.07C1613.12 310.15 1610.57 324.261 1610.57 344.404V416.432C1610.57 419.745 1607.89 422.432 1604.57 422.432H1579.05C1575.74 422.432 1573.05 419.745 1573.05 416.432V266.732Z" fill="white"/>
<path d="M1171.28 416.432V266.732C1171.28 263.419 1168.59 260.732 1165.28 260.732H1139.92C1136.61 260.732 1133.92 263.419 1133.92 266.732V416.432C1133.92 419.745 1136.61 422.432 1139.92 422.432H1165.28C1168.59 422.432 1171.28 419.745 1171.28 416.432Z" fill="white"/>
<path d="M1171 201V176C1171 172.686 1168.31 170 1165 170L1140 170C1136.69 170 1134 172.686 1134 176V201C1134 204.314 1136.69 207 1140 207L1165 207C1168.31 207 1171 204.314 1171 201Z" fill="white"/>
</svg>
