<svg width="1945" height="605" viewBox="0 0 1945 605" fill="none" xmlns="http://www.w3.org/2000/svg">
<path fill-rule="evenodd" clip-rule="evenodd" d="M368.042 257.896L315.467 162.135L148.874 465.569H254.024L368.042 257.896ZM281.94 465.569L382 283.319L482.06 465.569H281.94ZM126.845 490.993C117.916 490.993 112.254 481.424 116.551 473.597L305.143 130.092C307.206 126.335 311.152 124 315.438 124H448.562C452.849 124 456.794 126.335 458.857 130.092L647.449 473.597C651.746 481.424 646.083 490.993 637.155 490.993H126.845ZM509.976 465.569H615.126L441.554 149.423H336.404L509.976 465.569Z" fill="white"/>
<path fill-rule="evenodd" clip-rule="evenodd" d="M315.467 162.135L148.874 465.569H254.024L368.042 257.896L315.467 162.135ZM315.467 169.252L154.662 462.144H251.997L364.134 257.896L315.467 169.252ZM281.94 465.569H482.06L382 283.319L281.94 465.569ZM287.728 462.144H476.272L382 290.437L287.728 462.144ZM615.126 465.569L441.554 149.423H336.404L509.976 465.569H615.126ZM609.338 462.144L439.527 152.849H342.192L512.003 462.144H609.338ZM637.155 494.418H126.845C115.312 494.418 107.998 482.058 113.548 471.949L302.141 128.443C304.805 123.591 309.901 120.575 315.438 120.575H448.562C454.099 120.575 459.195 123.591 461.859 128.443L650.452 471.949C656.002 482.058 648.688 494.418 637.155 494.418ZM116.551 473.597C112.254 481.424 117.916 490.993 126.845 490.993H637.155C646.083 490.993 651.746 481.424 647.449 473.597L458.857 130.092C456.794 126.335 452.849 124 448.562 124H315.438C311.152 124 307.206 126.335 305.143 130.092L116.551 473.597Z" fill="white"/>
<path d="M934.402 429H843.876V394.462H867.871L855.873 362.105H767.529L754.804 394.462H781.344V429H691.908V394.462H713.722L784.979 227.225H750.441V192.687H826.425L911.497 394.462H934.402V429ZM844.966 332.657L814.064 250.493H811.883L779.162 332.657H844.966Z" fill="white"/>
<path d="M1130.68 429H1049.24V399.188H1068.15L1033.97 358.47H1007.79V399.188H1025.97V429H944.536V399.188H968.894V208.684H943.082V178.872H1007.79V330.476H1035.79L1064.51 295.938H1043.06V265.762H1122.68V295.938H1102.32L1063.78 341.019L1113.23 399.188H1130.68V429Z" fill="white"/>
<path d="M1169.23 231.951V189.052H1208.86V231.951H1169.23ZM1234.31 429H1147.05V399.188H1171.41V295.938H1145.6V265.762H1209.95V399.188H1234.31V429Z" fill="white"/>
<path d="M1450.26 429H1363V399.188H1387V335.202C1387 319.69 1384.21 308.783 1378.64 302.482C1373.06 295.938 1365.31 292.666 1355.37 292.666C1343.01 292.666 1333.19 296.665 1325.92 304.663C1318.89 312.661 1315.26 322.477 1315.01 334.111V399.188H1339.37V429H1251.75V399.188H1276.11V295.938H1250.66V265.762H1315.01V292.302C1326.4 272.428 1344.46 262.49 1369.18 262.49C1384.69 262.49 1398.03 267.217 1409.17 276.669C1420.32 286.122 1425.9 300.906 1425.9 321.023V399.188H1450.26V429Z" fill="white"/>
<path d="M1609.47 379.193C1608.02 393.492 1600.99 405.975 1588.39 416.639C1575.78 427.303 1558.45 432.636 1536.4 432.636C1512.64 432.636 1493.13 425.728 1477.86 411.913C1462.59 397.855 1454.96 377.254 1454.96 350.108C1454.96 325.144 1461.87 304.3 1475.68 287.576C1489.74 270.852 1509.25 262.49 1534.22 262.49C1556.76 262.49 1574.57 269.277 1587.66 282.85C1600.99 296.18 1607.78 313.146 1608.02 333.748C1608.02 340.534 1607.29 347.805 1605.84 355.561H1495.68C1497.86 386.1 1512.4 401.37 1539.31 401.37C1551.91 401.37 1560.88 398.34 1566.21 392.281C1571.78 386.221 1575.42 379.798 1577.12 373.012L1609.47 379.193ZM1568.03 331.566C1569 321.872 1566.69 312.783 1561.12 304.3C1555.79 295.574 1546.7 291.211 1533.85 291.211C1522.22 291.211 1513.37 295.089 1507.31 302.845C1501.25 310.601 1497.5 320.175 1496.04 331.566H1568.03Z" fill="white"/>
<path d="M1820.53 429H1733.28V399.188H1757.27V335.202C1757.27 319.69 1754.49 308.783 1748.91 302.482C1743.34 295.938 1735.58 292.666 1725.64 292.666C1713.28 292.666 1703.47 296.665 1696.19 304.663C1689.17 312.661 1685.53 322.477 1685.29 334.111V399.188H1709.65V429H1622.03V399.188H1646.39V295.938H1620.94V265.762H1685.29V292.302C1696.68 272.428 1714.74 262.49 1739.46 262.49C1754.97 262.49 1768.3 267.217 1779.45 276.669C1790.6 286.122 1796.17 300.906 1796.17 321.023V399.188H1820.53V429Z" fill="white"/>
</svg>
