<svg width="720" height="720" viewBox="0 0 720 720" fill="none" xmlns="http://www.w3.org/2000/svg">
<path fill-rule="evenodd" clip-rule="evenodd" d="M344.925 286.608L288.144 183.186L108.224 510.895H221.786L344.925 286.608ZM251.936 510.895L360 314.065L468.064 510.895H251.936ZM84.4325 538.352C74.7897 538.352 68.6739 528.018 73.3146 519.565L276.995 148.579C279.222 144.522 283.484 142 288.113 142H431.887C436.516 142 440.778 144.522 443.005 148.579L646.685 519.565C651.326 528.018 645.21 538.352 635.567 538.352H84.4325ZM498.214 510.895H611.776L424.318 169.457H310.756L498.214 510.895Z" fill="#fff"/>
<path fill-rule="evenodd" clip-rule="evenodd" d="M288.144 183.186L108.224 510.895H221.786L344.925 286.608L288.144 183.186ZM288.144 190.873L114.475 507.196H219.597L340.705 286.608L288.144 190.873ZM251.936 510.895H468.064L360 314.065L251.936 510.895ZM258.187 507.196H461.813L360 321.752L258.187 507.196ZM611.776 510.895L424.318 169.457H310.756L498.214 510.895H611.776ZM605.525 507.196L422.129 173.157H317.007L500.403 507.196H605.525ZM635.567 542.052H84.4325C71.9773 542.052 64.0777 528.703 70.0719 517.785L273.752 146.799C276.629 141.558 282.134 138.301 288.113 138.301H431.887C437.866 138.301 443.371 141.558 446.248 146.799L649.928 517.785C655.922 528.703 648.023 542.052 635.567 542.052ZM73.3146 519.565C68.6739 528.018 74.7897 538.352 84.4325 538.352H635.567C645.21 538.352 651.326 528.018 646.685 519.565L443.005 148.579C440.778 144.522 436.516 142 431.887 142H288.113C283.484 142 279.222 144.522 276.995 148.579L73.3146 519.565Z" fill="#fff"/>
</svg>
