<svg width="250" height="36" viewBox="0 0 250 36" fill="none" xmlns="http://www.w3.org/2000/svg">
<g clip-path="url(#clip0)">
<path d="M2.3361 32.9619H8.67923C9.01504 32.9619 9.31354 32.7754 9.50011 32.5142L26.9624 3.82088C27.1862 3.44775 26.925 3 26.4773 3H20.47C20.1715 3 19.9103 3.14925 19.761 3.41044L2.0376 32.4396C1.92567 32.6634 2.07492 32.9619 2.3361 32.9619V32.9619ZM24.2012 32.5142L32.4473 19.2683C32.7085 18.8578 32.41 18.3354 31.9249 18.3354H25.9549C25.731 18.3354 25.5072 18.4474 25.3952 18.6339L16.9253 32.1784C16.7014 32.5142 16.9626 32.9619 17.373 32.9619H23.455C23.7535 32.9619 24.052 32.8127 24.2012 32.5142Z" fill="#3EA8FF"/>
<path d="M41.704 25.576V29H56.904V25.576H47.688L56.296 15.88V12.456H42.344V15.88H50.312L41.704 25.576ZM71.0977 18.952H63.7057C63.7271 18.632 63.7911 18.2693 63.8977 17.864C64.0257 17.4587 64.2284 17.0747 64.5057 16.712C64.8044 16.3493 65.1884 16.0507 65.6577 15.816C66.1484 15.56 66.7564 15.432 67.4817 15.432C68.5911 15.432 69.4124 15.7307 69.9458 16.328C70.5004 16.9253 70.8844 17.8 71.0977 18.952ZM63.7057 21.832H75.6418C75.7271 20.552 75.6204 19.3253 75.3218 18.152C75.0231 16.9787 74.5324 15.9333 73.8498 15.016C73.1884 14.0987 72.3351 13.3733 71.2898 12.84C70.2444 12.2853 69.0178 12.008 67.6097 12.008C66.3511 12.008 65.1991 12.232 64.1537 12.68C63.1297 13.128 62.2444 13.7467 61.4977 14.536C60.7511 15.304 60.1751 16.2213 59.7697 17.288C59.3644 18.3547 59.1617 19.5067 59.1617 20.744C59.1617 22.024 59.3537 23.1973 59.7377 24.264C60.1431 25.3307 60.7084 26.248 61.4337 27.016C62.1591 27.784 63.0444 28.3813 64.0897 28.808C65.1351 29.2133 66.3084 29.416 67.6097 29.416C69.4871 29.416 71.0871 28.9893 72.4097 28.136C73.7324 27.2827 74.7137 25.864 75.3538 23.88H71.3538C71.2044 24.392 70.7991 24.8827 70.1377 25.352C69.4764 25.8 68.6871 26.024 67.7697 26.024C66.4897 26.024 65.5084 25.6933 64.8257 25.032C64.1431 24.3707 63.7697 23.304 63.7057 21.832ZM78.9767 12.456V29H83.5207V20.328C83.5207 18.6427 83.7981 17.4373 84.3527 16.712C84.9074 15.9653 85.8034 15.592 87.0407 15.592C88.1287 15.592 88.8861 15.9333 89.3127 16.616C89.7394 17.2773 89.9527 18.2907 89.9527 19.656V29H94.4967V18.824C94.4967 17.8 94.4007 16.872 94.2087 16.04C94.0381 15.1867 93.7287 14.472 93.2808 13.896C92.8327 13.2987 92.2141 12.84 91.4247 12.52C90.6567 12.1787 89.6647 12.008 88.4487 12.008C87.4887 12.008 86.5501 12.232 85.6327 12.68C84.7154 13.1067 83.9687 13.8 83.3927 14.76H83.2967V12.456H78.9767ZM98.5855 12.456V29H103.129V20.328C103.129 18.6427 103.407 17.4373 103.961 16.712C104.516 15.9653 105.412 15.592 106.649 15.592C107.737 15.592 108.495 15.9333 108.921 16.616C109.348 17.2773 109.561 18.2907 109.561 19.656V29H114.105V18.824C114.105 17.8 114.009 16.872 113.817 16.04C113.647 15.1867 113.337 14.472 112.889 13.896C112.441 13.2987 111.823 12.84 111.033 12.52C110.265 12.1787 109.273 12.008 108.057 12.008C107.097 12.008 106.159 12.232 105.241 12.68C104.324 13.1067 103.577 13.8 103.001 14.76H102.905V12.456H98.5855ZM118.386 24.072V29H123.41V24.072H118.386ZM139.484 20.68C139.484 21.3627 139.42 22.024 139.292 22.664C139.164 23.304 138.951 23.88 138.652 24.392C138.354 24.8827 137.948 25.2773 137.436 25.576C136.946 25.8747 136.327 26.024 135.58 26.024C134.876 26.024 134.268 25.8747 133.756 25.576C133.266 25.256 132.85 24.8507 132.508 24.36C132.188 23.848 131.954 23.272 131.804 22.632C131.655 21.992 131.58 21.352 131.58 20.712C131.58 20.0293 131.644 19.3787 131.772 18.76C131.922 18.12 132.146 17.5547 132.444 17.064C132.764 16.5733 133.18 16.1787 133.692 15.88C134.204 15.5813 134.834 15.432 135.58 15.432C136.327 15.432 136.946 15.5813 137.436 15.88C137.927 16.1787 138.322 16.5733 138.62 17.064C138.94 17.5333 139.164 18.088 139.292 18.728C139.42 19.3467 139.484 19.9973 139.484 20.68ZM139.548 26.888V29H143.868V6.152H139.324V14.472H139.26C138.748 13.6613 138.044 13.0533 137.148 12.648C136.274 12.2213 135.346 12.008 134.364 12.008C133.148 12.008 132.082 12.2533 131.164 12.744C130.247 13.2133 129.479 13.8427 128.86 14.632C128.263 15.4213 127.804 16.3387 127.484 17.384C127.186 18.408 127.036 19.4747 127.036 20.584C127.036 21.736 127.186 22.8453 127.484 23.912C127.804 24.9787 128.263 25.928 128.86 26.76C129.479 27.5707 130.258 28.2213 131.196 28.712C132.135 29.1813 133.223 29.416 134.46 29.416C135.548 29.416 136.519 29.224 137.372 28.84C138.247 28.4347 138.951 27.784 139.484 26.888H139.548ZM159.079 18.952H151.687C151.708 18.632 151.772 18.2693 151.879 17.864C152.007 17.4587 152.21 17.0747 152.487 16.712C152.786 16.3493 153.17 16.0507 153.639 15.816C154.13 15.56 154.738 15.432 155.463 15.432C156.572 15.432 157.394 15.7307 157.927 16.328C158.482 16.9253 158.866 17.8 159.079 18.952ZM151.687 21.832H163.623C163.708 20.552 163.602 19.3253 163.303 18.152C163.004 16.9787 162.514 15.9333 161.831 15.016C161.17 14.0987 160.316 13.3733 159.271 12.84C158.226 12.2853 156.999 12.008 155.591 12.008C154.332 12.008 153.18 12.232 152.135 12.68C151.111 13.128 150.226 13.7467 149.479 14.536C148.732 15.304 148.156 16.2213 147.751 17.288C147.346 18.3547 147.143 19.5067 147.143 20.744C147.143 22.024 147.335 23.1973 147.719 24.264C148.124 25.3307 148.69 26.248 149.415 27.016C150.14 27.784 151.026 28.3813 152.071 28.808C153.116 29.2133 154.29 29.416 155.591 29.416C157.468 29.416 159.068 28.9893 160.391 28.136C161.714 27.2827 162.695 25.864 163.335 23.88H159.335C159.186 24.392 158.78 24.8827 158.119 25.352C157.458 25.8 156.668 26.024 155.751 26.024C154.471 26.024 153.49 25.6933 152.807 25.032C152.124 24.3707 151.751 23.304 151.687 21.832ZM176.11 29L181.71 12.456H177.198L173.71 23.752H173.646L170.158 12.456H165.39L171.054 29H176.11ZM191.071 5.608L182.175 29.512H185.791L194.719 5.608H191.071ZM199.586 17.704C199.586 17.32 199.586 16.8613 199.586 16.328C199.607 15.7733 199.65 15.208 199.714 14.632C199.778 14.056 199.885 13.4907 200.034 12.936C200.183 12.36 200.386 11.848 200.642 11.4C200.919 10.952 201.261 10.5893 201.666 10.312C202.093 10.0347 202.615 9.896 203.234 9.896C203.853 9.896 204.375 10.0347 204.802 10.312C205.229 10.5893 205.581 10.952 205.858 11.4C206.135 11.848 206.338 12.36 206.466 12.936C206.615 13.4907 206.722 14.056 206.786 14.632C206.871 15.208 206.914 15.7733 206.914 16.328C206.935 16.8613 206.946 17.32 206.946 17.704C206.946 18.344 206.925 19.1227 206.882 20.04C206.839 20.936 206.701 21.8107 206.466 22.664C206.253 23.496 205.89 24.2107 205.378 24.808C204.887 25.4053 204.173 25.704 203.234 25.704C202.317 25.704 201.613 25.4053 201.122 24.808C200.631 24.2107 200.269 23.496 200.034 22.664C199.821 21.8107 199.693 20.936 199.65 20.04C199.607 19.1227 199.586 18.344 199.586 17.704ZM195.042 17.704C195.042 19.944 195.255 21.8213 195.682 23.336C196.13 24.8293 196.727 26.024 197.474 26.92C198.221 27.816 199.085 28.456 200.066 28.84C201.069 29.224 202.125 29.416 203.234 29.416C204.365 29.416 205.421 29.224 206.402 28.84C207.405 28.456 208.279 27.816 209.026 26.92C209.794 26.024 210.391 24.8293 210.818 23.336C211.266 21.8213 211.49 19.944 211.49 17.704C211.49 15.528 211.266 13.704 210.818 12.232C210.391 10.7387 209.794 9.544 209.026 8.648C208.279 7.752 207.405 7.112 206.402 6.728C205.421 6.344 204.365 6.152 203.234 6.152C202.125 6.152 201.069 6.344 200.066 6.728C199.085 7.112 198.221 7.752 197.474 8.648C196.727 9.544 196.13 10.7387 195.682 12.232C195.255 13.704 195.042 15.528 195.042 17.704ZM224.695 29V6.6H221.079C220.951 7.45333 220.685 8.168 220.279 8.744C219.874 9.32 219.373 9.78933 218.775 10.152C218.199 10.4933 217.538 10.7387 216.791 10.888C216.066 11.016 215.309 11.0693 214.519 11.048V14.472H220.151V29H224.695ZM231.116 15.208H235.468C235.468 14.6107 235.522 14.0133 235.628 13.416C235.756 12.7973 235.959 12.2427 236.236 11.752C236.514 11.24 236.876 10.8347 237.324 10.536C237.794 10.216 238.359 10.056 239.02 10.056C240.002 10.056 240.802 10.3653 241.42 10.984C242.06 11.5813 242.38 12.424 242.38 13.512C242.38 14.1947 242.22 14.8027 241.9 15.336C241.602 15.8693 241.218 16.3493 240.748 16.776C240.3 17.2027 239.799 17.5973 239.244 17.96C238.69 18.3013 238.167 18.6427 237.676 18.984C236.716 19.6453 235.799 20.296 234.924 20.936C234.071 21.576 233.324 22.28 232.684 23.048C232.044 23.7947 231.532 24.648 231.148 25.608C230.786 26.568 230.604 27.6987 230.604 29H247.052V25.096H236.46C237.015 24.328 237.655 23.656 238.38 23.08C239.106 22.504 239.852 21.9707 240.62 21.48C241.388 20.968 242.146 20.456 242.892 19.944C243.66 19.432 244.343 18.8667 244.94 18.248C245.538 17.608 246.018 16.8827 246.38 16.072C246.743 15.2613 246.924 14.2907 246.924 13.16C246.924 12.072 246.711 11.0907 246.284 10.216C245.879 9.34133 245.324 8.60533 244.62 8.008C243.916 7.41067 243.095 6.952 242.156 6.632C241.239 6.312 240.268 6.152 239.244 6.152C237.9 6.152 236.706 6.38667 235.66 6.856C234.636 7.304 233.783 7.944 233.1 8.776C232.418 9.58667 231.906 10.5467 231.564 11.656C231.223 12.744 231.074 13.928 231.116 15.208Z" fill="#24282A"/>
</g>
<defs>
<clipPath id="clip0">
<rect width="250" height="36" fill="white"/>
</clipPath>
</defs>
</svg>
