<svg width="250" height="36" viewBox="0 0 250 36" fill="none" xmlns="http://www.w3.org/2000/svg">
<g clip-path="url(#clip0)">
<path fill-rule="evenodd" clip-rule="evenodd" d="M13.8622 13.1515V10.8509C13.8622 10.4316 13.8839 10.2918 13.9484 10.0768C14.1209 9.48553 14.7034 9.04483 15.3934 9.04483C16.0834 9.04483 16.6657 9.49625 16.8382 10.0768C16.9029 10.2918 16.9246 10.4316 16.9246 10.8509V14.3985C16.9246 14.6135 16.9246 14.8284 16.8814 15.0221C16.7629 15.5595 16.2776 16.0435 15.7384 16.1616C15.5444 16.2045 15.3287 16.2045 15.1129 16.2045H11.5547C11.1342 16.2045 10.9939 16.1831 10.7782 16.1185C10.196 15.9465 9.74319 15.366 9.74319 14.6781C9.74319 13.99 10.196 13.4094 10.7782 13.2375C10.9939 13.1729 11.1342 13.1515 11.5547 13.1515H13.8622ZM26.5428 29.2344H7.45721V12.4742C7.45721 12.2592 7.53271 12.0764 7.6837 11.9259L12.6329 6.99133C12.7839 6.84098 12.9672 6.76571 13.1829 6.76571H26.5428V29.2344ZM28.7103 2.98141C28.6133 2.97069 28.4838 2.95996 28.2358 2.95996H12.676C12.5037 2.95996 12.3311 2.97069 12.2124 2.98141C11.5007 3.04595 10.8645 3.37921 10.3577 3.88444L4.56728 9.65751C4.06071 10.1629 3.72627 10.7971 3.66172 11.5067C3.65077 11.6248 3.64001 11.7968 3.64001 11.9688V30.9221C3.64001 31.1694 3.65077 31.2984 3.66172 31.3952C3.74778 32.2015 4.48102 32.9323 5.28976 33.0183C5.38696 33.0292 5.51625 33.04 5.76425 33.04H28.2358C28.4838 33.04 28.6133 33.0292 28.7103 33.0183C29.519 32.9323 30.2523 32.2015 30.3385 31.3952C30.3491 31.2984 30.36 31.1694 30.36 30.9221V5.07782C30.36 4.83056 30.3491 4.70148 30.3385 4.60476C30.2523 3.79845 29.519 3.0674 28.7103 2.98141Z" fill="#41C9B4"/>
<path d="M42.728 12.456V29H47.272V20.328C47.272 18.6427 47.5493 17.4373 48.104 16.712C48.6587 15.9653 49.5547 15.592 50.792 15.592C51.88 15.592 52.6373 15.9333 53.064 16.616C53.4907 17.2773 53.704 18.2907 53.704 19.656V29H58.248V18.824C58.248 17.8 58.152 16.872 57.96 16.04C57.7893 15.1867 57.48 14.472 57.032 13.896C56.584 13.2987 55.9653 12.84 55.176 12.52C54.408 12.1787 53.416 12.008 52.2 12.008C51.24 12.008 50.3013 12.232 49.384 12.68C48.4667 13.1067 47.72 13.8 47.144 14.76H47.048V12.456H42.728ZM65.4088 20.744C65.4088 20.0827 65.4728 19.432 65.6008 18.792C65.7288 18.152 65.9421 17.5867 66.2408 17.096C66.5608 16.6053 66.9768 16.2107 67.4888 15.912C68.0008 15.592 68.6408 15.432 69.4088 15.432C70.1768 15.432 70.8168 15.592 71.3288 15.912C71.8621 16.2107 72.2781 16.6053 72.5768 17.096C72.8968 17.5867 73.1208 18.152 73.2488 18.792C73.3768 19.432 73.4408 20.0827 73.4408 20.744C73.4408 21.4053 73.3768 22.056 73.2488 22.696C73.1208 23.3147 72.8968 23.88 72.5768 24.392C72.2781 24.8827 71.8621 25.2773 71.3288 25.576C70.8168 25.8747 70.1768 26.024 69.4088 26.024C68.6408 26.024 68.0008 25.8747 67.4888 25.576C66.9768 25.2773 66.5608 24.8827 66.2408 24.392C65.9421 23.88 65.7288 23.3147 65.6008 22.696C65.4728 22.056 65.4088 21.4053 65.4088 20.744ZM60.8648 20.744C60.8648 22.0667 61.0674 23.2613 61.4728 24.328C61.8781 25.3947 62.4541 26.312 63.2008 27.08C63.9474 27.8267 64.8434 28.4027 65.8888 28.808C66.9341 29.2133 68.1074 29.416 69.4088 29.416C70.7101 29.416 71.8834 29.2133 72.9288 28.808C73.9954 28.4027 74.9021 27.8267 75.6488 27.08C76.3954 26.312 76.9714 25.3947 77.3768 24.328C77.7821 23.2613 77.9848 22.0667 77.9848 20.744C77.9848 19.4213 77.7821 18.2267 77.3768 17.16C76.9714 16.072 76.3954 15.1547 75.6488 14.408C74.9021 13.64 73.9954 13.0533 72.9288 12.648C71.8834 12.2213 70.7101 12.008 69.4088 12.008C68.1074 12.008 66.9341 12.2213 65.8888 12.648C64.8434 13.0533 63.9474 13.64 63.2008 14.408C62.4541 15.1547 61.8781 16.072 61.4728 17.16C61.0674 18.2267 60.8648 19.4213 60.8648 20.744ZM86.3793 12.456V7.496H81.8353V12.456H79.0833V15.496H81.8353V25.256C81.8353 26.088 81.9739 26.76 82.2513 27.272C82.5286 27.784 82.9019 28.1787 83.3713 28.456C83.8619 28.7333 84.4166 28.9147 85.0353 29C85.6753 29.1067 86.3473 29.16 87.0513 29.16C87.4993 29.16 87.9579 29.1493 88.4273 29.128C88.8966 29.1067 89.3233 29.064 89.7073 29V25.48C89.4939 25.5227 89.2699 25.5547 89.0353 25.576C88.8006 25.5973 88.5553 25.608 88.2993 25.608C87.5313 25.608 87.0193 25.48 86.7633 25.224C86.5073 24.968 86.3793 24.456 86.3793 23.688V15.496H89.7073V12.456H86.3793ZM102.685 18.952H95.2933C95.3146 18.632 95.3786 18.2693 95.4853 17.864C95.6133 17.4587 95.8159 17.0747 96.0933 16.712C96.3919 16.3493 96.7759 16.0507 97.2453 15.816C97.7359 15.56 98.3439 15.432 99.0693 15.432C100.179 15.432 101 15.7307 101.533 16.328C102.088 16.9253 102.472 17.8 102.685 18.952ZM95.2933 21.832H107.229C107.315 20.552 107.208 19.3253 106.909 18.152C106.611 16.9787 106.12 15.9333 105.437 15.016C104.776 14.0987 103.923 13.3733 102.877 12.84C101.832 12.2853 100.605 12.008 99.1973 12.008C97.9386 12.008 96.7866 12.232 95.7413 12.68C94.7173 13.128 93.8319 13.7467 93.0853 14.536C92.3386 15.304 91.7626 16.2213 91.3573 17.288C90.9519 18.3547 90.7493 19.5067 90.7493 20.744C90.7493 22.024 90.9413 23.1973 91.3253 24.264C91.7306 25.3307 92.2959 26.248 93.0213 27.016C93.7466 27.784 94.6319 28.3813 95.6773 28.808C96.7226 29.2133 97.8959 29.416 99.1973 29.416C101.075 29.416 102.675 28.9893 103.997 28.136C105.32 27.2827 106.301 25.864 106.941 23.88H102.941C102.792 24.392 102.387 24.8827 101.725 25.352C101.064 25.8 100.275 26.024 99.3573 26.024C98.0773 26.024 97.0959 25.6933 96.4133 25.032C95.7306 24.3707 95.3573 23.304 95.2933 21.832ZM109.796 24.072V29H114.82V24.072H109.796ZM129.455 18.28H133.903C133.839 17.2133 133.583 16.296 133.135 15.528C132.687 14.7387 132.1 14.088 131.375 13.576C130.671 13.0427 129.86 12.648 128.943 12.392C128.047 12.136 127.108 12.008 126.127 12.008C124.783 12.008 123.588 12.232 122.543 12.68C121.497 13.128 120.612 13.7573 119.887 14.568C119.161 15.3573 118.607 16.3067 118.223 17.416C117.86 18.504 117.679 19.688 117.679 20.968C117.679 22.2053 117.881 23.3467 118.287 24.392C118.692 25.416 119.257 26.3013 119.983 27.048C120.708 27.7947 121.583 28.3813 122.607 28.808C123.652 29.2133 124.793 29.416 126.031 29.416C128.228 29.416 130.031 28.84 131.439 27.688C132.847 26.536 133.7 24.8613 133.999 22.664H129.615C129.465 23.688 129.092 24.5093 128.495 25.128C127.919 25.7253 127.087 26.024 125.999 26.024C125.295 26.024 124.697 25.864 124.207 25.544C123.716 25.224 123.321 24.8187 123.023 24.328C122.745 23.816 122.543 23.2507 122.415 22.632C122.287 22.0133 122.223 21.4053 122.223 20.808C122.223 20.1893 122.287 19.5707 122.415 18.952C122.543 18.312 122.756 17.736 123.055 17.224C123.375 16.6907 123.78 16.264 124.271 15.944C124.761 15.6027 125.369 15.432 126.095 15.432C128.036 15.432 129.156 16.3813 129.455 18.28ZM140.278 20.744C140.278 20.0827 140.342 19.432 140.47 18.792C140.598 18.152 140.811 17.5867 141.11 17.096C141.43 16.6053 141.846 16.2107 142.358 15.912C142.87 15.592 143.51 15.432 144.278 15.432C145.046 15.432 145.686 15.592 146.198 15.912C146.731 16.2107 147.147 16.6053 147.446 17.096C147.766 17.5867 147.99 18.152 148.118 18.792C148.246 19.432 148.31 20.0827 148.31 20.744C148.31 21.4053 148.246 22.056 148.118 22.696C147.99 23.3147 147.766 23.88 147.446 24.392C147.147 24.8827 146.731 25.2773 146.198 25.576C145.686 25.8747 145.046 26.024 144.278 26.024C143.51 26.024 142.87 25.8747 142.358 25.576C141.846 25.2773 141.43 24.8827 141.11 24.392C140.811 23.88 140.598 23.3147 140.47 22.696C140.342 22.056 140.278 21.4053 140.278 20.744ZM135.734 20.744C135.734 22.0667 135.936 23.2613 136.342 24.328C136.747 25.3947 137.323 26.312 138.07 27.08C138.816 27.8267 139.712 28.4027 140.758 28.808C141.803 29.2133 142.976 29.416 144.278 29.416C145.579 29.416 146.752 29.2133 147.798 28.808C148.864 28.4027 149.771 27.8267 150.518 27.08C151.264 26.312 151.84 25.3947 152.246 24.328C152.651 23.2613 152.854 22.0667 152.854 20.744C152.854 19.4213 152.651 18.2267 152.246 17.16C151.84 16.072 151.264 15.1547 150.518 14.408C149.771 13.64 148.864 13.0533 147.798 12.648C146.752 12.2213 145.579 12.008 144.278 12.008C142.976 12.008 141.803 12.2213 140.758 12.648C139.712 13.0533 138.816 13.64 138.07 14.408C137.323 15.1547 136.747 16.072 136.342 17.16C135.936 18.2267 135.734 19.4213 135.734 20.744ZM155.616 12.456V29H160.16V19.4C160.16 18.5893 160.277 17.9387 160.512 17.448C160.747 16.936 161.024 16.552 161.344 16.296C161.685 16.0187 162.027 15.8373 162.368 15.752C162.731 15.6453 163.019 15.592 163.232 15.592C163.957 15.592 164.501 15.72 164.864 15.976C165.248 16.2107 165.515 16.5307 165.664 16.936C165.835 17.3413 165.931 17.7893 165.952 18.28C165.973 18.7493 165.984 19.2293 165.984 19.72V29H170.528V19.784C170.528 19.272 170.56 18.7707 170.624 18.28C170.709 17.768 170.859 17.32 171.072 16.936C171.307 16.5307 171.616 16.2107 172 15.976C172.405 15.72 172.928 15.592 173.568 15.592C174.208 15.592 174.709 15.6987 175.072 15.912C175.456 16.1253 175.744 16.4133 175.936 16.776C176.128 17.1387 176.245 17.5653 176.288 18.056C176.331 18.5467 176.352 19.0693 176.352 19.624V29H180.896V17.928C180.896 16.8613 180.747 15.9547 180.448 15.208C180.149 14.44 179.733 13.8213 179.2 13.352C178.667 12.8827 178.027 12.5413 177.28 12.328C176.533 12.1147 175.723 12.008 174.848 12.008C173.696 12.008 172.693 12.2853 171.84 12.84C171.008 13.3947 170.347 14.0347 169.856 14.76C169.408 13.736 168.747 13.0213 167.872 12.616C167.019 12.2107 166.069 12.008 165.024 12.008C163.936 12.008 162.965 12.2427 162.112 12.712C161.28 13.1813 160.565 13.8427 159.968 14.696H159.904V12.456H155.616ZM191.016 5.608L182.12 29.512H185.736L194.664 5.608H191.016ZM199.531 17.704C199.531 17.32 199.531 16.8613 199.531 16.328C199.552 15.7733 199.595 15.208 199.659 14.632C199.723 14.056 199.83 13.4907 199.979 12.936C200.128 12.36 200.331 11.848 200.587 11.4C200.864 10.952 201.206 10.5893 201.611 10.312C202.038 10.0347 202.56 9.896 203.179 9.896C203.798 9.896 204.32 10.0347 204.747 10.312C205.174 10.5893 205.526 10.952 205.803 11.4C206.08 11.848 206.283 12.36 206.411 12.936C206.56 13.4907 206.667 14.056 206.731 14.632C206.816 15.208 206.859 15.7733 206.859 16.328C206.88 16.8613 206.891 17.32 206.891 17.704C206.891 18.344 206.87 19.1227 206.827 20.04C206.784 20.936 206.646 21.8107 206.411 22.664C206.198 23.496 205.835 24.2107 205.323 24.808C204.832 25.4053 204.118 25.704 203.179 25.704C202.262 25.704 201.558 25.4053 201.067 24.808C200.576 24.2107 200.214 23.496 199.979 22.664C199.766 21.8107 199.638 20.936 199.595 20.04C199.552 19.1227 199.531 18.344 199.531 17.704ZM194.987 17.704C194.987 19.944 195.2 21.8213 195.627 23.336C196.075 24.8293 196.672 26.024 197.419 26.92C198.166 27.816 199.03 28.456 200.011 28.84C201.014 29.224 202.07 29.416 203.179 29.416C204.31 29.416 205.366 29.224 206.347 28.84C207.35 28.456 208.224 27.816 208.971 26.92C209.739 26.024 210.336 24.8293 210.763 23.336C211.211 21.8213 211.435 19.944 211.435 17.704C211.435 15.528 211.211 13.704 210.763 12.232C210.336 10.7387 209.739 9.544 208.971 8.648C208.224 7.752 207.35 7.112 206.347 6.728C205.366 6.344 204.31 6.152 203.179 6.152C202.07 6.152 201.014 6.344 200.011 6.728C199.03 7.112 198.166 7.752 197.419 8.648C196.672 9.544 196.075 10.7387 195.627 12.232C195.2 13.704 194.987 15.528 194.987 17.704ZM224.64 29V6.6H221.024C220.896 7.45333 220.63 8.168 220.224 8.744C219.819 9.32 219.318 9.78933 218.72 10.152C218.144 10.4933 217.483 10.7387 216.736 10.888C216.011 11.016 215.254 11.0693 214.464 11.048V14.472H220.096V29H224.64ZM231.062 15.208H235.414C235.414 14.6107 235.467 14.0133 235.574 13.416C235.702 12.7973 235.904 12.2427 236.182 11.752C236.459 11.24 236.822 10.8347 237.27 10.536C237.739 10.216 238.304 10.056 238.966 10.056C239.947 10.056 240.747 10.3653 241.366 10.984C242.006 11.5813 242.326 12.424 242.326 13.512C242.326 14.1947 242.166 14.8027 241.846 15.336C241.547 15.8693 241.163 16.3493 240.694 16.776C240.246 17.2027 239.744 17.5973 239.19 17.96C238.635 18.3013 238.112 18.6427 237.622 18.984C236.662 19.6453 235.744 20.296 234.87 20.936C234.016 21.576 233.27 22.28 232.63 23.048C231.99 23.7947 231.478 24.648 231.094 25.608C230.731 26.568 230.55 27.6987 230.55 29H246.998V25.096H236.406C236.96 24.328 237.6 23.656 238.326 23.08C239.051 22.504 239.798 21.9707 240.566 21.48C241.334 20.968 242.091 20.456 242.838 19.944C243.606 19.432 244.288 18.8667 244.886 18.248C245.483 17.608 245.963 16.8827 246.326 16.072C246.688 15.2613 246.87 14.2907 246.87 13.16C246.87 12.072 246.656 11.0907 246.23 10.216C245.824 9.34133 245.27 8.60533 244.566 8.008C243.862 7.41067 243.04 6.952 242.102 6.632C241.184 6.312 240.214 6.152 239.19 6.152C237.846 6.152 236.651 6.38667 235.606 6.856C234.582 7.304 233.728 7.944 233.046 8.776C232.363 9.58667 231.851 10.5467 231.51 11.656C231.168 12.744 231.019 13.928 231.062 15.208Z" fill="#24282A"/>
</g>
<defs>
<clipPath id="clip0">
<rect width="250" height="36" fill="white"/>
</clipPath>
</defs>
</svg>
