<svg width="16" height="16" viewBox="0 0 16 16" fill="none" xmlns="http://www.w3.org/2000/svg">
<path d="M8 0.501312C3.85787 0.501312 0.5 3.85916 0.5 8.00131C0.5 12.1435 3.85787 15.5013 8 15.5013C12.1421 15.5013 15.5 12.1434 15.5 8.00131C15.5 3.85919 12.1421 0.501312 8 0.501312V0.501312ZM12.5962 12.5975C11.4565 13.7337 9.93457 14.405 8.32699 14.4804C6.71941 14.5558 5.14134 14.03 3.90025 13.0055C2.65917 11.9809 1.84399 10.531 1.61355 8.93825C1.38311 7.34549 1.75391 5.72399 2.65371 4.38969C3.55352 3.05539 4.91786 2.10389 6.48089 1.72059C8.04392 1.33728 9.69367 1.54963 11.1087 2.31626C12.5237 3.08289 13.6026 4.34888 14.1352 5.86754C14.6678 7.38621 14.6159 9.04876 13.9896 10.5312C13.6632 11.3037 13.19 12.0054 12.5962 12.5975V12.5975Z" fill="black"/>
<path d="M8.51918 5.15585L7.81205 4.44876L4.25952 8.00129L7.81205 11.5538L8.51918 10.8467L6.17374 8.50129H12.0312V7.50129H6.17374L8.51918 5.15585V5.15585Z" fill="black"/>
</svg>
